<?xml version="1.0" encoding="utf-8"?>
<!-- Generator: Adobe Illustrator 21.0.0, SVG Export Plug-In . SVG Version: 6.00 Build 0)  -->
<svg version="1.1" id="Layer_1" xmlns="http://www.w3.org/2000/svg" xmlns:xlink="http://www.w3.org/1999/xlink" x="0px" y="0px"
	 viewBox="0 0 142.7 150" style="enable-background:new 0 0 142.7 150;" xml:space="preserve">
<style type="text/css">
	.st0{fill:#E26D5A;}
</style>
<path class="st0" d="M133.5,18.4h-15H97.5C95.5,8.7,86.9,1.3,76.6,1.3H66.2c-10.3,0-18.9,7.4-20.8,17.1H24.3h-15
	c-4.7,0-8.5,3.8-8.5,8.5v10.2c0,4.7,3.8,8.5,8.5,8.5h3.3l5.9,91c0,7,5.6,12.6,12.6,12.6h80.7c7,0,12.6-5.6,12.6-12.6l5.9-91h3.3
	c4.7,0,8.5-3.8,8.5-8.5V26.9C142,22.2,138.2,18.4,133.5,18.4z M37.5,140.1c-0.1,0-0.2,0-0.4,0c-2.7,0-4.9-2.1-5.1-4.7l-5.7-83.2
	c-0.2-2.8,1.9-5.2,4.7-5.4c2.8-0.2,5.2,1.9,5.4,4.7l5.7,83.2C42.4,137.5,40.3,139.9,37.5,140.1z M66.2,11.5h10.4
	c4.6,0,8.6,2.9,10.2,6.9H55.9C57.6,14.4,61.6,11.5,66.2,11.5z M60.3,140.1c0,0-0.1,0-0.1,0c-2.7,0-5-2.2-5.1-5L52.8,52
	c-0.1-2.8,2.1-5.2,5-5.2c2.8-0.1,5.2,2.1,5.2,5l2.3,83.2C65.3,137.7,63.1,140.1,60.3,140.1z M88.3,135.1c0,2.8-2.3,5-5.1,5
	c0,0,0,0-0.1,0c-2.8,0-5.1-2.3-5-5.2l1.1-83.2c0-2.8,2.2-4.9,5.2-5c2.8,0,5.1,2.3,5,5.2L88.3,135.1z M111.3,135.3
	c-0.1,2.7-2.4,4.8-5.1,4.8c-0.1,0-0.2,0-0.3,0c-2.8-0.2-5-2.6-4.8-5.4l4.5-83.2c0.2-2.8,2.5-5,5.4-4.8c2.8,0.2,5,2.6,4.8,5.4
	L111.3,135.3z"/>
</svg>
