<?xml version="1.0" encoding="utf-8"?>
<!-- Generator: Adobe Illustrator 21.0.0, SVG Export Plug-In . SVG Version: 6.00 Build 0)  -->
<svg version="1.1" id="Layer_1" xmlns="http://www.w3.org/2000/svg" xmlns:xlink="http://www.w3.org/1999/xlink" x="0px" y="0px"
	 viewBox="0 0 150 107.2" style="enable-background:new 0 0 150 107.2;" xml:space="preserve">
<style type="text/css">
	.st0{fill:#FFFFFF;}
	.st1{fill:#E26D5A;}
</style>
<g>
	<path class="st0" d="M74.9,37.5C74.9,37.5,74.9,37.5,74.9,37.5c-6.7,0-12.8,2.6-17.5,7.3c-4.6,4.7-7.2,10.9-7.2,17.5
		s2.6,12.8,7.3,17.4c4.7,4.6,10.8,7.2,17.4,7.2c0,0,0,0,0.1,0c6.6,0,12.8-2.6,17.4-7.3c4.6-4.7,7.2-10.9,7.2-17.5S97,49.3,92.3,44.7
		C87.7,40.1,81.5,37.5,74.9,37.5z M89.7,76.9C85.8,80.8,80.6,83,75,83c0,0,0,0-0.1,0c-5.5,0-10.8-2.1-14.7-6.1
		c-3.9-3.9-6.1-9.1-6.1-14.7c0-5.6,2.1-10.8,6.1-14.7c3.9-3.9,9.1-6.1,14.7-6.1c0,0,0,0,0.1,0c5.5,0,10.8,2.1,14.7,6.1
		c3.9,3.9,6.1,9.1,6.1,14.7C95.8,67.7,93.6,72.9,89.7,76.9z"/>
	<path class="st0" d="M75,46.1L75,46.1c-8.9,0-16.1,7.3-16.1,16.2c0,1.1,0.9,1.9,1.9,1.9h0c1.1,0,1.9-0.9,1.9-1.9
		C62.7,55.5,68.2,50,75,50c1.1,0,1.9-0.9,1.9-1.9C76.9,47,76.1,46.1,75,46.1z"/>
	<path class="st1" d="M149,38.5c0-11.5-9.4-20.8-20.9-20.8l-23.2,0.1l0-4.1c0-7.2-5.9-13.1-13.1-13L57.9,0.8
		c-7.2,0-13.1,5.9-13,13.1l0,4.1L21.6,18C10,18.1,0.7,27.4,0.8,38.9l0.1,46.9c0,11.5,9.4,20.8,20.9,20.8l106.5-0.3
		c11.5,0,20.8-9.4,20.8-20.9L149,38.5z M75,91.6c-16.2,0-29.4-13.1-29.5-29.3c0-16.2,13.1-29.4,29.3-29.5
		c16.2,0,29.4,13.1,29.5,29.3C104.4,78.3,91.3,91.5,75,91.6z"/>
</g>
</svg>
